<svg id="Capa_1" enable-background="new 0 0 512 512" height="512" viewBox="0 0 512 512" width="512" xmlns="http://www.w3.org/2000/svg"><g><g><path clip-rule="evenodd" d="m235.358 408.214c-11.707-10.507-22.478-20.93-32.37-31.21-30.102 8.411-50.228 23.762-50.228 41.321 0 26.594 46.231 48.175 103.233 48.175 57.03 0 103.261-21.581 103.261-48.175 0-17.559-20.153-32.91-50.228-41.321-9.892 10.281-20.692 20.703-32.398 31.21-15.363 15.011-25.34 13.481-41.27 0z" fill="#f0e6e2" fill-rule="evenodd"/></g><g><path clip-rule="evenodd" d="m399.873 159.353c-14.23-69.105-76.702-112.493-143.88-113.853-67.178 1.359-129.622 44.748-143.851 113.853-3.912 18.947-4.167 39.848.085 62.336 3.713 19.655 10.885 40.5 22.109 62.364 15.08 29.369 37.472 60.523 68.652 92.951 9.892 10.281 20.664 20.703 32.37 31.21 15.93 13.481 25.907 15.01 41.27 0 11.707-10.507 22.506-20.93 32.398-31.21 31.151-32.428 53.544-63.61 68.652-92.951 11.196-21.864 18.368-42.709 22.109-62.364 4.252-22.488 3.969-43.389.086-62.336z" fill="#66e0f7" fill-rule="evenodd"/></g><g><path clip-rule="evenodd" d="m51.908 315.376c-9.581-9.573-25.142-9.573-34.723 0s-9.581 25.093 0 34.666 25.142 9.573 34.723 0 9.581-25.093 0-34.666z" fill="#b8ecbc" fill-rule="evenodd"/></g><g><path clip-rule="evenodd" d="m59.08 221.689c0-13.538-10.97-24.498-24.519-24.498-13.577 0-24.547 10.96-24.547 24.498s10.97 24.526 24.547 24.526c13.549 0 24.519-10.989 24.519-24.526z" fill="#b8ecbc" fill-rule="evenodd"/></g><g><path clip-rule="evenodd" d="m51.908 93.364c-9.581-9.573-25.142-9.573-34.723 0s-9.581 25.093 0 34.666 25.142 9.573 34.723 0 9.581-25.094 0-34.666z" fill="#b8ecbc" fill-rule="evenodd"/></g><g><path clip-rule="evenodd" d="m494.8 93.364c-9.581-9.573-25.114-9.573-34.694 0-9.581 9.573-9.581 25.093 0 34.666s25.114 9.573 34.694 0c9.581-9.574 9.581-25.094 0-34.666z" fill="#b8ecbc" fill-rule="evenodd"/></g><g><path clip-rule="evenodd" d="m477.453 197.19c-13.549 0-24.547 10.96-24.547 24.498s10.998 24.526 24.547 24.526 24.547-10.988 24.547-24.525c0-13.538-10.998-24.499-24.547-24.499z" fill="#b8ecbc" fill-rule="evenodd"/></g><g><path clip-rule="evenodd" d="m494.8 315.376c-9.581-9.573-25.114-9.573-34.694 0-9.581 9.573-9.581 25.093 0 34.666s25.114 9.573 34.694 0c9.581-9.573 9.581-25.093 0-34.666z" fill="#b8ecbc" fill-rule="evenodd"/></g><g><path d="m288.215 110.781c0-5.523-4.477-10-10-10s-10 4.477-10 10v10.505h-29.32v-10.505c0-5.523-4.477-10-10-10s-10 4.477-10 10v10.505h-19.195c-5.523 0-10 4.477-10 10s4.477 10 10 10h17.863v58.114 58.085h-17.863c-5.523 0-10 4.477-10 10s4.477 10 10 10h19.195v10.505c0 5.523 4.477 10 10 10s10-4.477 10-10v-10.505h29.32v10.505c0 5.523 4.477 10 10 10s10-4.477 10-10v-11.661c19.513-4.538 34.099-22.037 34.099-42.886 0-13.703-6.3-25.962-16.157-34.046 9.857-8.089 16.157-20.356 16.157-34.068 0-20.849-14.586-38.349-34.099-42.886zm14.099 122.661c0 13.257-10.811 24.042-24.099 24.042h-40.652v-48.084h40.652c13.288 0 24.099 10.785 24.099 24.042zm0-68.113c0 13.272-10.811 24.071-24.099 24.071h-40.652v-48.113h40.652c13.288-.001 24.099 10.785 24.099 24.042z"/><path d="m462.551 301.581-16.639-23.334c-1.877-2.632-4.91-4.194-8.142-4.194h-44.268c6.33-14.267 11.141-28.419 14.378-42.364h36.509c4.301 14.176 17.493 24.526 33.064 24.526 19.049 0 34.547-15.488 34.547-34.526 0-19.022-15.498-34.498-34.547-34.498-15.568 0-28.758 10.338-33.062 24.498h-32.93c1.813-14.526 1.849-28.704.15-42.336h26.158c3.232 0 6.265-1.563 8.142-4.194l16.639-23.334c4.698 2.241 9.798 3.368 14.902 3.367 8.841 0 17.685-3.364 24.415-10.088 6.524-6.519 10.118-15.187 10.118-24.407s-3.593-17.888-10.117-24.407c-13.463-13.452-35.368-13.452-48.831 0-6.524 6.519-10.117 15.187-10.117 24.407 0 6.262 1.662 12.268 4.77 17.52l-15.071 21.136h-24.859c-5.916-22.558-16.929-43.191-32.822-60.863-3.692-4.105-10.016-4.442-14.122-.749-4.107 3.693-4.442 10.016-.749 14.123 28.516 31.708 38.908 74.726 29.26 121.128-11.787 56.692-53.069 118.169-119.385 177.787-.103.092-.204.187-.303.284-8.177 7.991-11.913 7.881-13.135 7.841-3.412-.102-8.045-2.717-14.573-8.227-11.154-10.032-21.559-20.067-31.234-30.095-.31-.372-.646-.718-1.003-1.038-37.094-38.65-63.142-77.177-77.625-114.916-15.429-40.203-17.057-79.011-4.709-112.227 18.86-50.734 70.538-85.636 128.64-86.899 11.039.224 22.08 1.687 32.819 4.349 5.36 1.329 10.784-1.94 12.112-7.3 1.329-5.36-1.939-10.784-7.3-12.112-12.252-3.038-24.853-4.699-37.451-4.937-.131-.003-.262-.003-.394 0-32.046.655-62.807 10.132-88.954 27.405-27.106 17.907-47.239 42.985-58.22 72.525-1.694 4.558-3.155 9.202-4.393 13.921h-24.823l-15.071-21.136c3.108-5.252 4.77-11.258 4.77-17.52 0-9.22-3.593-17.888-10.117-24.407-13.471-13.46-35.389-13.46-48.859 0-6.526 6.518-10.119 15.186-10.119 24.406s3.593 17.888 10.117 24.406c6.735 6.73 15.583 10.095 24.43 10.095 5.109 0 10.215-1.129 14.917-3.373l16.639 23.334c1.877 2.632 4.91 4.194 8.142 4.194h26.144c-1.694 13.668-1.634 27.838.18 42.336h-32.973c-4.3-14.16-17.48-24.498-33.035-24.498-19.049 0-34.547 15.476-34.547 34.498 0 19.038 15.498 34.526 34.547 34.526 15.558 0 28.739-10.35 33.037-24.526h36.542c2.296 9.942 5.377 19.994 9.257 30.105 1.566 4.081 3.27 8.168 5.083 12.259h-44.236c-3.232 0-6.265 1.563-8.142 4.194l-16.639 23.333c-12.845-6.13-28.722-3.893-39.346 6.722-6.524 6.52-10.117 15.188-10.117 24.408s3.593 17.888 10.118 24.407c6.735 6.729 15.582 10.094 24.429 10.094s17.694-3.365 24.43-10.094c6.524-6.519 10.117-15.187 10.117-24.407 0-6.263-1.662-12.268-4.77-17.521l15.071-21.136h48.906c14.044 26.055 33.011 52.261 56.775 78.429-26.776 10.735-42.316 27.28-42.316 45.843 0 16.969 12.789 32.284 36.011 43.122 20.799 9.707 48.224 15.053 77.221 15.053 29.01 0 56.443-5.346 77.246-15.053 23.225-10.837 36.016-26.152 36.016-43.122 0-18.572-15.556-35.121-42.359-45.853 16.759-18.465 31.181-36.986 43.119-55.398 4.983-7.686 9.539-15.364 13.67-23.021h48.935l15.071 21.136c-3.108 5.253-4.77 11.258-4.77 17.521 0 9.22 3.593 17.888 10.118 24.407 6.731 6.726 15.573 10.088 24.415 10.088s17.684-3.363 24.416-10.088c6.524-6.519 10.117-15.187 10.117-24.407s-3.593-17.888-10.118-24.407c-10.616-10.608-26.48-12.843-39.317-6.721zm4.623-201.144c2.834-2.832 6.556-4.247 10.279-4.247s7.445 1.416 10.279 4.247c2.743 2.741 4.254 6.384 4.254 10.259s-1.511 7.518-4.254 10.259c-5.668 5.663-14.89 5.663-20.558 0-2.743-2.74-4.253-6.384-4.253-10.258-.001-3.876 1.51-7.519 4.253-10.26zm-442.921 20.518c-2.743-2.74-4.253-6.384-4.253-10.258 0-3.875 1.511-7.519 4.254-10.259 2.837-2.835 6.565-4.253 10.293-4.253s7.456 1.417 10.293 4.253c2.743 2.741 4.254 6.384 4.254 10.259s-1.511 7.518-4.253 10.258c-5.676 5.671-14.912 5.671-20.588 0zm10.308 115.26c-8.021 0-14.547-6.517-14.547-14.526 0-7.994 6.526-14.498 14.547-14.498 8.005 0 14.519 6.504 14.519 14.498 0 8.009-6.514 14.526-14.519 14.526zm10.279 106.753c-5.677 5.671-14.912 5.67-20.586 0-2.743-2.74-4.254-6.384-4.254-10.259s1.511-7.519 4.253-10.259c2.838-2.835 6.566-4.253 10.293-4.253s7.455 1.418 10.293 4.253c2.743 2.741 4.254 6.384 4.254 10.259.001 3.875-1.51 7.519-4.253 10.259zm432.613-135.777c8.021 0 14.547 6.504 14.547 14.498 0 8.01-6.526 14.526-14.547 14.526s-14.547-6.517-14.547-14.526c0-7.995 6.526-14.498 14.547-14.498zm-128.199 211.134c0 8.502-9.148 17.848-24.473 24.998-18.21 8.497-42.64 13.177-68.789 13.177-26.136 0-50.557-4.68-68.763-13.176-15.322-7.151-24.47-16.496-24.47-24.999 0-10.906 14.766-22.624 37.302-30.003 8.963 9.121 18.494 18.234 28.611 27.329.074.067.149.132.226.197 7.414 6.274 16.42 12.73 27.009 13.046.267.008.531.012.794.012 11.584 0 20.773-7.562 26.762-13.39 10.037-9.029 19.51-18.103 28.443-27.201 22.563 7.376 37.348 19.098 37.348 30.01zm138.478-75.357c-5.668 5.664-14.89 5.664-20.558 0-2.743-2.741-4.254-6.384-4.254-10.259s1.511-7.518 4.254-10.259c5.669-5.663 14.891-5.662 20.558 0 2.743 2.741 4.254 6.384 4.254 10.259s-1.511 7.519-4.254 10.259z"/></g><g><path d="m332.759 76.933c-2.551 0-5.101-.973-7.05-2.922l-.028-.028c-3.905-3.905-3.905-10.237 0-14.143 3.905-3.905 10.237-3.905 14.143 0 3.905 3.905 3.919 10.251.014 14.157-1.957 1.955-4.519 2.936-7.079 2.936z"/></g></g></svg>